<?xml version="1.0" encoding="utf-8"?>
<!-- Generator: Adobe Illustrator 27.0.1, SVG Export Plug-In . SVG Version: 6.00 Build 0)  -->
<svg version="1.1" id="Layer_1" xmlns="http://www.w3.org/2000/svg" xmlns:xlink="http://www.w3.org/1999/xlink" x="0px" y="0px"
	 viewBox="0 0 735 343.2" style="enable-background:new 0 0 735 343.2;" xml:space="preserve">
<style type="text/css">
	.st0{fill:#FFFFFF;}
</style>
<path class="st0" d="M566.3,181.6l-14.2,2.5v1.2c0,14.7,7.7,21.6,23.2,18.8c16.6-2.9,23.2-15.4,23.2-24.5v-1.7
	c0-7.9-3.7-12.2-8.5-14.2c4.5-3.6,8.1-9.1,8.1-16.7v-1.7c0-8.6-5.9-18-22.8-15.1c-15.5,2.7-22.8,11.8-22.8,27.2v1.8l14.2-2.5
	c0-9.1,3.1-12.8,8.1-13.6l0.9-0.2c4.7-0.8,8.1,1.8,8.1,6.6v0.8c0,5.5-3,8.7-8.2,9.6l-9.3,1.6v12.8l9.5-1.7c5.2-0.9,8.4,1.3,8.4,6.9
	v1c0,6.3-4.1,9.8-8.5,10.6l-0.9,0.2C570,192.2,566.3,190.1,566.3,181.6"/>
<path class="st0" d="M713.1,332.3c0,6.1,4.9,10.9,10.9,10.9c6.1,0,10.9-4.9,10.9-10.9c0-5.9-4.9-10.9-10.9-10.9
	C718.1,321.3,713.1,326.3,713.1,332.3 M715,332.3c0-5.1,4-9.1,9.1-9.1s9.1,4,9.1,9.1c0,5.1-4,9.1-9.1,9.1S715,337.3,715,332.3
	 M728.6,330v-0.6c0-2.3-1.6-3.7-4.1-3.7h-4.9v12.9h2.2v-4.9h2.7l2.2,4.9h2.2l-2.3-5.2C727.7,333.1,728.6,331.8,728.6,330
	 M726.5,329.7v0.3c0,1.3-0.9,1.9-2.3,1.9h-2.5v-4h2.5C725.6,327.8,726.5,328.4,726.5,329.7"/>
<path class="st0" d="M488.7,216.3"/>
<polygon class="st0" points="79,128.8 32.7,136.9 32.7,172.7 79,164.6 "/>
<polygon class="st0" points="362.8,81.6 316.5,89.7 316.5,163 362.8,154.9 "/>
<path class="st0" d="M391.6,49.6L391.6,49.6C391.4,49.6,391.4,49.6,391.6,49.6C391.4,49.6,391.4,49.6,391.6,49.6"/>
<path class="st0" d="M534.1,109.1l-17.8,3.2l-6.6,1.3l16.2-21.4c5.2-6.8,8.1-11.8,8.1-20.9v-1.9c0-9.2-5.7-20.1-24.3-16.8
	c-16.5,2.9-24.3,12.4-24.3,28.9v1.8l17.5-3c0-8.2,2.8-11.3,6.5-11.9l0.9-0.1c3.7-0.6,6.5,1.5,6.5,7.7v1c0,3.8-1.5,6.1-4.2,9.4
	l-27.2,35.9v11.3l48.7-8.6v-15.7H534.1z M566.1,64.3c0-4,2.4-7.3,6.7-8.1l0.4-0.1c4.4-0.8,6.7,1.6,6.7,5.8v32.8
	c0,4.1-2.4,7.3-6.7,8.1l-0.4,0.1c-4.4,0.8-6.7-1.6-6.7-5.8V64.3z M573,118.5c15.9-2.8,24.3-13.8,24.3-26.8V58.8
	c0-13-8.5-21.1-24.3-18.4c-15.9,2.8-24.3,13.9-24.3,27v32.8C548.7,113.3,557.1,121.4,573,118.5"/>
<path class="st0" d="M517.1,199.4l-6.5,1.3l15.9-21c5.1-6.7,8-11.5,8-20.5v-1.9c0-9.1-5.6-19.7-23.9-16.6
	c-16.2,2.9-23.9,12.1-23.9,28.3v1.8l17.1-3c0-8.1,2.8-11.1,6.3-11.8l0.9-0.1c3.5-0.6,6.3,1.5,6.3,7.6v0.9c0,3.7-1.5,5.9-4,9.2
	l-26.7,35.3V220l47.8-8.5v-15.3L517.1,199.4z"/>
<path class="st0" d="M733.6,101.7L733.6,101.7L649.2,0.5c-0.1-0.1-0.3-0.4-0.5-0.5c0.9,1.3,1.4,2.9,1.4,4.7v208.8
	c0,5.2-4.2,10.2-9.2,11.1l-202.5,35.7c-5.1,0.9-9.2-2.7-9.2-7.8V81.9c0-0.1,0-0.3-0.1-0.3l-37-31.5c-0.1-0.1-0.4-0.3-0.6-0.4
	c1.8,1.6,3.3,3.7,4.4,6.1c1.3,2.7,1.9,5.7,1.9,9v94.7c0,3.3-0.6,6.5-1.9,9.6c-1.3,3.2-2.9,5.9-4.9,8.5c-2,2.5-4.4,4.7-7.3,6.3
	c-2.8,1.8-5.8,2.9-9,3.4l-69.9,12.3c-3.2,0.5-6.2,0.5-9-0.3c-2.8-0.8-5.3-2-7.3-3.8c-2.2-1.8-3.8-4.1-4.9-6.7
	c-1.1-2.7-1.8-5.7-1.8-9V92.5c0-0.4-0.1-0.6-0.5-0.9l-30.8-22.5c-0.3-0.3-0.6-0.4-0.9-0.5c0.5,0.5,0.8,1.3,0.8,2.2v26.8
	c0,1.1-0.4,2-1.1,2.9c-0.8,0.9-1.6,1.4-2.7,1.6l-28,4.9c-1,0.1-1.9,0.6-2.7,1.5c-0.8,0.8-1.1,1.9-1.1,2.9v100.2c0,1.1-0.4,2-1,2.9
	c-0.6,0.9-1.5,1.4-2.5,1.5l-27.5,4.8c-1,0.1-1.9,0-2.7-0.6c-0.8-0.6-1.1-1.5-1.1-2.5V117.4c0-1.1-0.4-1.9-1-2.5
	c-0.6-0.5-1.5-0.8-2.5-0.5l-28,4.9c-1,0.1-1.9,0-2.7-0.6c-0.8-0.6-1.1-1.5-1.1-2.5v6.3l-38.2-24c0.3,0.1,0.5,0.4,0.6,0.5
	c2,1.8,3.7,3.9,4.9,6.7c1.3,2.7,1.9,5.7,1.9,9v114.8c0,1.1-0.4,2-1.1,2.9c-0.8,0.9-1.6,1.4-2.7,1.6l-27.5,4.8c-1,0.1-1.9,0-2.7-0.6
	c-0.8-0.6-1.1-1.5-1.1-2.5v-36.4c0-1.1-0.4-1.9-1-2.5c-0.6-0.6-1.5-0.9-2.5-0.6l-39.1,6.8c-1,0.1-1.9,0.8-2.7,1.6
	c-0.8,0.9-1.1,1.9-1.1,2.9v36.4c0,2.5-1.3,4.1-3.8,4.6l-27.2,4.8c-0.5,0.1-1,0.1-1.4,0c0.1,0.1,0.4,0.4,0.6,0.5l155.3,73.7
	c0.5,0.3,1.1,0.4,2,0.1l24.2-4.3c2.3-0.4,3.3-1.8,3.3-4v-26.8c0.1,0.1,42.8,22,42.8,22c0.5,0.3,1.1,0.4,1.9,0.3l24.4-4.3
	c0.9-0.1,1.8-0.6,2.4-1.4c0.6-0.8,1-1.6,1-2.7v-41.9l60.2,34.3c0.5,0.3,1.1,0.4,1.9,0.3l24.4-4.3c1-0.1,1.9-0.8,2.4-1.6
	c0.5-0.8,0.8-1.5,0.8-2.4v-56.4l68.5,44.2c1.1,0.6,2.4,1.1,3.7,1.5c2.5,0.6,5.2,0.8,8,0.3l28-4.9c0.3,0.3,85.7,58,85.7,58
	c1.4,0.9,3.2,1.4,5.2,1l180.1-31.8c4.6-0.8,8.2-5.2,8.2-9.9v-186C735.3,104.5,734.6,103,733.6,101.7"/>
<path class="st0" d="M488.7,216.3"/>
<path class="st0" d="M391.6,49.6L391.6,49.6C391.4,49.6,391.4,49.6,391.6,49.6C391.4,49.6,391.4,49.6,391.6,49.6"/>
<path class="st0" d="M713.1,332.3c0,6.1,4.9,10.9,10.9,10.9c6.1,0,10.9-4.9,10.9-10.9c0-5.9-4.9-10.9-10.9-10.9
	C718.1,321.3,713.1,326.3,713.1,332.3 M715,332.3c0-5.1,4-9.1,9.1-9.1c5.1,0,9.1,4,9.1,9.1c0,5.1-4.1,9.1-9.1,9.1
	C719.1,341.4,715,337.3,715,332.3 M728.6,330v-0.6c0-2.3-1.6-3.7-4.1-3.7h-4.9v12.9h2.2v-4.9h2.7l2.2,4.9h2.2l-2.3-5.2
	C727.7,333.1,728.6,331.8,728.6,330 M726.5,329.7v0.3c0,1.3-0.9,1.9-2.3,1.9h-2.5v-4.1h2.5C725.7,327.8,726.5,328.4,726.5,329.7"/>
</svg>
