<svg xmlns="http://www.w3.org/2000/svg" role="img" viewBox="-8.21 83.53 414.18 76.43"><title>ApacheCassandraSummit_2023_WebGraphics_400x245-Logo-White-Horizontal.svg</title><defs><clipPath id="clippath"><path d="m52.66909,91.84737c-4.07035.49264-7.84239,1.91748-11.48828,3.70141-6.93725,3.39395-13.37168,7.62841-19.80118,11.86603-6.99733,4.61254-13.97569,9.25459-20.95861,13.88926-.23262.15424-.52285.25017-.67078.55623,3.42522,2.2618,6.84342,4.53029,10.27287,6.78229,7.96748,5.23199,15.82815,10.62986,24.0546,15.4599,4.84725,2.84615,9.78411,5.51065,15.27051,6.97027.88934.23683,1.78676.44731,2.6803.66973h7.70045c.08748-.143.23576-.14899.37879-.17183,1.86792-.29585,3.92143-.94499,5.69869-1.56833-.01651-1.53447-.29558-2.99572-.31172-4.53087-.08574.03374-.17254.06464-.25828.09732-.68905.26107-1.38336.50352-2.08506.71787-.31696.09662-.63599.18588-.9561.27162-.47682.1272-.95644.2435-1.44066.34293-.5397.11105-1.08399.2038-1.63318.27548-.37001.04849-.46629.253-.58259.52672-.50598,1.19117-1.41606,1.82048-2.71265,1.82504-1.27091.00457-2.15639-.66655-2.67925-1.76883-.19079-.40336-.39845-.53513-.8194-.60331-8.57256-1.389-14.96938-5.87082-18.92976-13.58249-2.79907-5.44953-3.35145-11.23038-1.86828-17.18308.11314-.45327.10823-.76881-.25756-1.14689-.83698-.86545-1.05589-1.93118-.61034-3.06051.45574-1.15568,1.3623-1.82575,2.59071-1.90165.59382-.03654.84014-.29866,1.12932-.73964,5.45232-8.30904,13.12431-12.41488,23.12486-12.03082,1.15251.04427,2.29729.29903,3.44596.45608,5.10516,1.14901,9.50827,3.54331,13.11058,7.35223,1.2221,1.29236,2.31383,2.68734,3.20387,4.22884.26177.45293.52846.7031,1.1251.74316,1.22139.08081,2.12725.74106,2.59353,1.90199.47296,1.17713.20872,2.23864-.65744,3.12023-.32431.32995-.32817.60296-.23051,1.00144,1.80609,7.35433.54394,14.17316-3.76993,20.38024-2.58437,3.71829-5.99308,6.52789-10.14214,8.41232-.23683.10717-.46067.24211-.69047.36369.01581,1.53515.03198,3.06999.04849,4.60445.16726-.0492.33838-.08855.50142-.14899,4.59954-1.71086,8.8287-4.14767,12.99887-6.68074,8.76265-5.32301,17.19605-11.15062,25.74331-16.80287,2.30118-1.52181,4.5939-3.05628,6.96325-4.63291-.39952-.27338-.72877-.50669-1.06608-.72875-7.51069-4.95233-15.00417-9.92993-22.53912-14.84606-5.80125-3.78503-11.62848-7.53669-17.87667-10.57259-2.98461-1.45048-6.02929-2.75762-9.3203-3.37815-.5376-.12964-1.10228-.12544-1.63179-.23295-1.28288-.26143-2.56542-.37915-3.85111-.37915-.93009,0-1.86159.06151-2.79626.17464" class="cls-3"/></clipPath><clipPath id="clippath-1"><path d="m69.18735,109.18996h.00034-.00034Zm-13.41874-5.75557c.46416.90409.59136,1.83174.88089,2.70561.11068-.065.16973-.15075.21013-.24457-.04006.09383-.09945.17957-.21013.24492.31764,1.16482.6367,2.33244.97191,3.56087.13633.50034.27514,1.00879.41885,1.53447,1.76532-2.18135,3.41679-4.22217,5.20424-6.43057-.32536,2.79837-.62368,5.3715-.93676,8.06656,2.42449-1.19396,4.54822-2.62935,6.87013-3.69262.03093-.03232.06149-.06466.09205-.09698.04849.09383.02389.13177-.08223.10788-.07553.50037-.30042.92869-.55377,1.34297-.08433.13807-.17181.27441-.25826.41145-.11525.18272-.2277.3665-.32749.55623-.67393,1.28359-1.42132,2.52921-2.12654,3.797-.10717.19289-.33943.41321-.18798.62861.14547.20625.43641.08433.65671.05936,2.33633-.26422,4.67158-.5397,7.24296-.83978-2.20209,1.7372-4.23832,3.343-6.43162,5.07282,2.68172.7906,5.17297,1.52533,7.90248,2.33034-2.73055.76881-5.23974,1.47474-7.90458,2.22493,2.10614,1.65954,4.1185,3.24531,6.13154,4.83108-.02108.06361-.04216.12686-.06327.1901-2.54361-.29165-5.08723-.58398-7.74225-.88863,1.25723,2.30574,2.47054,4.53276,3.68421,6.75979.03374.04287.10504.10612.09417.12544-.06466.12019-.13633.04639-.2038-.00772l-.00036.00034c-1.93678-1.05413-3.87217-2.11002-5.81036-3.16027-.27408-.14828-.51864-.37141-.96384-.39039.29973,2.62444.5963,5.22183.9157,8.01634-1.53728-1.85739-2.95121-3.56578-4.36515-5.27418-.12686-.13458-.25371-.26915-.39425-.41814-.14019-.14933-.29446-.31307-.47613-.50598-.72347,2.52499-1.41076,4.92349-2.09806,7.32164-.05975.00493-.11948.00984-.17886.01476-.701-2.4382-1.40234-4.87641-2.14657-7.46572-1.32258,1.63567-2.55802,3.17786-3.81139,4.70566-.39672.48314-.7126,1.03938-1.23334,1.41606.00071.00738.00036.0151.00071.02248-.00948.00457-.01898.00879-.02846.013-.00774.01265-.01407.02565-.02389.03549-.00703.00667-.02987-.0021-.04534-.00422.02284-.01019.04602-.02072.06923-.03127.00562-.00948.01229-.01791.01827-.02704.00352-.00247.00596-.00598.00948-.00843-.03794-.57451-.00914-1.14268.04849-1.70876.02145-.21294.04602-.42515.0738-.63739.10331-.78429.23576-1.56576.2969-2.35389.07837-1.00423.21998-2.00391.34224-3.08474-.55553.06781-.9083.37844-1.29131.59068-1.62055.89811-3.22424,1.82575-4.84444,2.72386-.23086.12825-.43782.38511-.76109.28146,0,0-.00034,0-.00034-.00036-.00106.00247-.00247.00457-.00352.00669l-.01335-.01055c.00597.00247.01088.00247.01687.00386.91007-1.70276,1.81978-3.40624,2.75444-5.15575.31202-.58435.62651-1.17325.94486-1.76954-2.6617.30254-5.2264.59383-7.79146.88477-.02002-.05692-.04005-.11384-.06044-.17076,2.01726-1.59033,4.03487-3.18067,6.17932-4.8715-2.72318-.75547-5.29772-1.46983-7.997-2.21861,2.70526-.7906,5.26118-1.53798,7.98998-2.3356-2.17432-1.71402-4.22918-3.33457-6.44778-5.08374,2.804.32082,5.37362.61491,8.16707.93465-1.34543-2.42415-2.60335-4.69122-3.98954-7.18883,2.48072,1.37881,4.75449,2.64307,7.16178,3.98146-.31239-2.71685-.60648-5.27733-.93221-8.10557,1.80081,2.22071,3.45754,4.26397,5.20248,6.41616.74738-2.64586,1.45507-5.1526,2.18524-7.73768m-10.68645-1.92696c-.49544.253-.98035.5246-1.45576.81554-2.95684,1.80889-5.53068,4.35428-7.73206,7.61962-.42411.62932-.46171,1.03376-.01159,1.71333,1.22771,1.8535.01089,4.2745-2.20489,4.50676-.47296.04954-.6367.22699-.73263.6613-1.72701,7.82306-.2052,14.89067,5.03981,21.02678,3.76185,4.40099,8.57853,7.00014,14.31617,7.89862.42588.0664.67254.0288.87493-.42835.40444-.91147,1.17537-1.42693,2.15607-1.58577,1.36332-.2203,2.33701.45224,3.15852,1.4368.05272.56887.35384.72735.89532.58398.44836-.11843.91218-.17886,1.36897-.26705,12.80701-2.47193,21.30121-16.0207,17.95961-28.62532-.11911-.44975-.26248-.65778-.77865-.71751-2.33349-.27057-3.46563-2.82614-2.07453-4.71338.37209-.50493.31483-.82153.0151-1.29167-1.49756-2.3493-3.29485-4.43016-5.50222-6.13855-.49367-.3823-.99475-.74421-1.50354-1.08577-.50879-.34153-1.02497-.66269-1.54993-.96206-.26248-.1497-.52636-.29409-.79304-.43326-.36615-.19113-.73615-.37175-1.11036-.54216-2.61845-1.19223-5.43018-1.86933-8.46362-1.9477-.29165-.00806-.58188-.01229-.86931-.01229-4.10093,0-7.76404.83557-11.00234,2.4881" class="cls-3"/></clipPath><clipPath id="clippath-2"><path d="m58.4454,117.71087q-1.86686.0042-1.86652,1.8363.00034,2.15182,2.16274,2.15605,2.298.00491,1.91711-2.12197c-.32011-1.78781-.33486-1.87075-1.96421-1.87075-.07905,0-.16198,0-.24912.00036" class="cls-3"/></clipPath><clipPath id="clippath-3"><path d="m56.74262,123.44254c-.4828.42024-.10155,1.36122-.16304,2.07311-.00493.05763-.00071.11596-.00071.17393q0,1.62126,1.6311,1.62373,2.10123.00315,2.47616-2.05907.35487-1.95192-1.57734-1.94875c-.1163.00034-.23226.00034-.34857.00034-.00036-.01019-.00105-.02037-.00142-.03056-.21223.01053-.44518-.00352-.6785-.01688-.1764-.01053-.35279-.02108-.52003-.02108-.33242,0-.62898.04111-.81766.20522" class="cls-3"/></clipPath><clipPath id="clippath-4"><path d="m51.44525,117.85949c-.59664.5074-.44027,1.62512-.59207,2.47791-.24526,1.37952-.2263,1.38267,1.20698,1.38338.29163.00034.58328,0,.87493.00034,1.01268.00071,1.54114.00107,1.81627-.23366.0397-.03337.07378-.07167.10331-.1156.03408-.04991.06219-.10717.08538-.17254.03725-.1047.06219-.23051.07871-.38089.01617-.15075.0246-.32678.02882-.53163.0042-.2052.0042-.43957.0042-.70732,0-.26143-.03198-.52777.00562-.78393.12299-.83943-.12683-1.24072-1.06679-1.11176-.31974.04392-.67112.00879-1.01722-.02599-.23087-.02318-.45925-.04673-.6743-.04673-.32924,0-.62686.05482-.85384.24841" class="cls-3"/></clipPath><clipPath id="clippath-5"><path d="m52.98605,123.29319h-.08716q-2.2309.00142-1.91922,2.17398.26634,1.85809,2.13426,1.8588,1.93785.00139,1.93785-1.94733c-.00034-2.03625-.00034-2.08545-1.92027-2.08545h-.14547" class="cls-3"/></clipPath><clipPath id="clippath-6"><path d="m64.87841,117.6947c-.8152.01441-1.63108.02108-2.44665.00352-.3995-.00879-.50809.14266-.42972.51827.11875.56713.19255,1.14339.31588,1.7091.12615.57942-.23437,1.39532.28181,1.69682.45468.26563,1.18871.0555,1.79905.0555.00034.01231.00034.02496.00034.03725.46592,0,.93468-.02987,1.39742.00843.52814.04321.66166-.17745.58787-.65883-.15847-1.03938-.4487-2.03518-.89777-2.98742-.12475-.26353-.29761-.38299-.58892-.38299-.00633,0-.013.00034-.01932.00034" class="cls-3"/></clipPath><clipPath id="clippath-7"><path d="m65.617,123.28442c-.39845.05763-.81239.00984-1.21927.00984v.00525c-.49404,0-.98879.01055-1.48212-.00386-.33978-.01019-.5225.07062-.55868.46558-.09488,1.03691-.2372,2.06891-.3672,3.1023-.03093.24807-.04568.40268.30044.46419,2.6434.46873,3.2917.05621,3.9189-2.55205.04744-.19677.09417-.39425.13775-.59173.11735-.53305.07834-.91885-.487-.91885-.07204,0-.15251.00633-.24282.01932" class="cls-3"/></clipPath><clipPath id="clippath-8"><path d="m48.21434,117.70139q-2.07314.00069-2.63428,1.9691-.58293,2.04678,1.49792,2.04783h.08714c.14337.00036.28674-.00281.43045-.00562.3215-.00633.64337-.013.96241.01441.53481.04534.70031-.15495.70312-.68343.00315-.63213.08924-1.26918.19325-1.89498.23788-1.42659.2544-1.44731-1.16868-1.44731h-.07133" class="cls-3"/></clipPath><clipPath id="clippath-9"><path d="m47.247,123.29636q-2.30715.00176-1.6311,2.2309c.00844.02741.0225.05377.03093.08117.54111,1.71436.54111,1.72701,2.32929,1.70803.16655-.00139.35031.0204.53479.04216.44731.05342.89811.10648,1.11914-.17884.22804-.29409-.12297-1.03129-.20942-1.57206-.02741-.17183-.0267-.34752-.05025-.52003-.24033-1.74636-.24771-1.79167-1.9807-1.79167-.04639,0-.09383.00034-.14266.00034" class="cls-3"/></clipPath><clipPath id="clippath-10"><path d="m56.57184,129.35516c.02179,1.0682.00738,2.13672.00738,3.2007.09102.01546.15707.0492.19924.03022,1.51092-.68377,2.23019-2.04221,2.89992-3.42908.17217-.35595-.156-.35384-.38687-.35489-.26598-.00105-.53269.00105-.79903.00315-.45889.00352-.91814.00738-1.37634-.00701-.01581-.00071-.03127-.00071-.04639-.00071-.38404,0-.50562.16445-.4979.55763" class="cls-3"/></clipPath><clipPath id="clippath-11"><path d="m56.57887,113.70762q0,2.61249,2.63357,2.46878c.05833-.00317.11701-.00386.17498-.00176.34014.01265.41323-.17078.28674-.43781-.66164-1.40131-1.38619-2.752-3.09529-3.42981v1.4006Z" class="cls-3"/></clipPath><clipPath id="clippath-12"><path d="m53.13853,128.77047c-.28953.00036-.57976.00422-.86931.00105-.37456-.00386-.45503.14371-.29058.4807.52355,1.0724,1.11948,2.09456,2.05765,2.86371.25335.20732.53867.58997.88794.38897.28215-.16304.10189-.58469.12297-.89073.02108-.31625.00457-.63528.00457-.95258,0-1.85035,0-1.89112-1.79026-1.89112h-.12299" class="cls-3"/></clipPath><clipPath id="clippath-13"><path d="m54.44672,112.68722c-.89847.5889-1.52357,1.41956-2.04292,2.33665-.73473,1.29905-.73016,1.30186.7597,1.30257.23647,0,.44272,0,.62334-.00317.18096-.00386.33591-.01124.46839-.02599.19922-.0225.34857-.06185.46065-.13072.33591-.20625.33591-.67816.33557-1.75689,0-.46416-.01793-.92869.00457-1.39144.01651-.34471-.06676-.48913-.22559-.48913-.09979,0-.2298.05728-.3837.15812" class="cls-3"/></clipPath><clipPath id="clippath-14"><path d="m61.27188,129.25783c-.42728,1.07661-.98668,2.08508-1.77164,3.20246,2.02743-.81168,3.62058-1.86195,4.92139-3.66381-1.00073,0-1.80609.00562-2.6111-.00247h-.00772c-.32363,0-.42693.20239-.53093.46382" class="cls-3"/></clipPath><clipPath id="clippath-15"><path d="m49.76146,128.77364c-.7769.00596-1.5545.00176-2.46844.00176,1.1592,1.73334,3.4818,3.41398,4.72567,3.46492-.68553-.96734-1.22841-1.98774-1.67149-3.05873-.11562-.27831-.28286-.40795-.57837-.40795h-.00738" class="cls-3"/></clipPath><clipPath id="clippath-16"><path d="m47.2491,116.18519c.9431,0,1.69574.00525,2.4484-.00317.0376-.00034.078.0021.11877.00457.16795.01019.34855.02003.4241-.16936.4603-1.15321,1.08892-2.22317,1.67009-3.33281-1.83841.7126-3.41504,1.71964-4.66137,3.50078" class="cls-3"/></clipPath><clipPath id="clippath-17"><path d="m59.75954,112.67105c.4315,1.14198,1.23473,2.10265,1.61212,3.27203.04707.14652.17251.23471.33381.23051.27406-.00774.5492.00034.82749.00772.57907.01583,1.17466.03198,1.81205-.08924-.16128-.20063-.32573-.39425-.49262-.58118-1.16482-1.30186-2.48072-2.2678-4.09319-2.8416.00034.00071.00034.00105.00034.00176" class="cls-3"/></clipPath><clipPath id="clippath-18"><path d="m52.66909,151.96704c-4.07035-.49264-7.84239-1.91748-11.48828-3.70141-6.93725-3.39395-13.37168-7.62841-19.80118-11.86603-6.99733-4.61254-13.97569-9.34841-20.95861-13.98308-.23262-.15424-.52285-.25017-.67078-.55623,3.42522-2.2618,7.21343-.58075,10.64288-2.83275,7.96748-5.23199,19.47826,17.54023,20.70667,17.61612.59382.03654,16.16609,14.18851,26.16664,13.80445,1.15251-.04427,3.637-2.62444,4.78567-2.78149,5.10516-1.14901,19.98252-11.81937,20.44881-12.9803.47296-1.17713,26.88015-14.45256,29.2495-12.87593-.39952.27338-.72877.50669-1.06608.72875-7.51069,4.95233-15.00417,10.12356-22.53912,15.0397-5.80125,3.78503-11.62848,7.53669-17.87667,10.57259-2.98461,1.45048-6.02929,2.75762-9.3203,3.37815-.5376.12964-1.10228.12544-1.63179.23295-1.28288.26143-2.56542.37915-3.85111.37915-.93009,0-1.86159-.06151-2.79626-.17464" class="cls-3"/></clipPath><style>.cls-3{fill:#fff}</style></defs><g><path d="M140.66478 114.47147l-2.66241 2.53825c-1.81119-1.91431-3.84889-2.87156-6.11288-2.87156-1.91099 0-3.52064.65337-4.82914 1.95992-1.30869 1.30635-1.96304 2.91698-1.96304 4.83148 0 1.33364.28985 2.51778.86934 3.55222.5795 1.03424 1.39913 1.84628 2.45872 2.43591 1.05958.58983 2.23709.88455 3.53214.88455 1.10461 0 2.1143-.20623 3.02905-.61926.91456-.41265 1.91977-1.16348 3.0158-2.2521l2.58093 2.69301c-1.47749 1.44202-2.87351 2.44176-4.18766 2.99943-1.31434.55747-2.81425.8364-4.50031.8364-3.10897 0-5.65384-.98571-7.63423-2.95713-1.98058-1.97142-2.97077-4.49797-2.97077-7.57985 0-1.99403.45085-3.76624 1.35294-5.31605.9017-1.55 2.19343-2.79612 3.87481-3.73895 1.68138-.94263 3.49199-1.41395 5.43164-1.41395 1.64961 0 3.23801.34832 4.7654 1.04516s2.84388 1.68781 3.94966 2.97253zM150.09734 110.95668h3.86078l7.69232 19.99994h-3.95648l-1.56482-4.11963h-8.1609l-1.627 4.11963h-3.95648l7.71259-19.99994zm1.95427 5.3026l-2.68346 6.86605h5.35074l-2.66728-6.86605zM175.09016 113.67601l-2.81952 2.48815c-.99-1.37769-1.99773-2.06673-3.02379-2.06673-.49938 0-.90794.13391-1.22585.40114-.31772.26743-.47658.56897-.47658.90404 0 .33546.11344.65259.34052.95179.30856.399 1.2393 1.25548 2.79184 2.56963 1.45274 1.21474 2.33339 1.98058 2.64233 2.29771.77149.77968 1.31863 1.52525 1.64103 2.2367.3224.71165.4836 1.4886.4836 2.33163 0 1.64064-.56722 2.99592-1.70146 4.06525-1.13424 1.06972-2.61329 1.60439-4.43696 1.60439-1.42467 0-2.66553-.3491-3.72258-1.04691-1.05725-.69781-1.96245-1.79463-2.71543-3.29025l3.2-1.93068c.96232 1.76753 2.06966 2.6513 3.32241 2.6513.65357 0 1.20285-.19044 1.64785-.57112.44481-.38068.66721-.82022.66721-1.31883 0-.45319-.16802-.90618-.50387-1.35957-.33624-.45319-1.07615-1.14652-2.22014-2.08018-2.1792-1.7765-3.58652-3.14757-4.22216-4.11281-.63563-.96544-.95316-1.92834-.95316-2.8893 0-1.38666.52843-2.57645 1.58587-3.56898 1.05705-.99253 2.36165-1.4886 3.91341-1.4886.99838 0 1.949.23098 2.85187.69333.90287.46215 1.88078 1.30518 2.93354 2.52889zM189.56997 113.67601l-2.81952 2.48815c-.99-1.37769-1.99773-2.06673-3.02379-2.06673-.49938 0-.90794.13391-1.22585.40114-.31772.26743-.47658.56897-.47658.90404 0 .33546.11344.65259.34052.95179.30856.399 1.2393 1.25548 2.79184 2.56963 1.45274 1.21474 2.33339 1.98058 2.64233 2.29771.77149.77968 1.31863 1.52525 1.64103 2.2367.3224.71165.4836 1.4886.4836 2.33163 0 1.64064-.56722 2.99592-1.70146 4.06525-1.13424 1.06972-2.61329 1.60439-4.43696 1.60439-1.42467 0-2.66553-.3491-3.72258-1.04691-1.05725-.69781-1.96245-1.79463-2.71543-3.29025l3.2-1.93068c.96232 1.76753 2.06966 2.6513 3.32241 2.6513.65357 0 1.20285-.19044 1.64785-.57112.44481-.38068.66721-.82022.66721-1.31883 0-.45319-.16802-.90618-.50387-1.35957-.33624-.45319-1.07615-1.14652-2.22014-2.08018-2.1792-1.7765-3.58652-3.14757-4.22216-4.11281-.63563-.96544-.95316-1.92834-.95316-2.8893 0-1.38666.52843-2.57645 1.58587-3.56898 1.05705-.99253 2.36165-1.4886 3.91341-1.4886.99838 0 1.949.23098 2.85187.69333.90287.46215 1.88078 1.30518 2.93354 2.52889zM199.65512 110.95668h3.86078l7.69232 19.99994h-3.95648l-1.56482-4.11963h-8.1609l-1.627 4.11963h-3.95648l7.71259-19.99994zm1.95427 5.3026l-2.68346 6.86605h5.35074l-2.66728-6.86605zM214.16534 110.95668h3.65182l8.55756 13.16118v-13.16118h3.80678v19.99994h-3.66215l-8.54704-13.12025v13.12025h-3.80698v-19.99994zM234.76349 110.95668h4.51005c2.90703 0 5.06694.36041 6.47972 1.08103 1.41258.72062 2.57645 1.89209 3.49121 3.5146s1.37204 3.51694 1.37204 5.68308c0 1.54104-.25593 2.95713-.7674 4.24886-.51186 1.29154-1.21825 2.3636-2.11936 3.2154-.90111.85219-1.87688 1.44124-2.9275 1.76753-1.05042.3263-2.87058.48944-5.46068.48944h-4.57808v-19.99994zm3.77969 3.67092v12.61735h1.76753c1.74024 0 3.00235-.1996 3.78651-.59899.78397-.3992 1.42525-1.07069 1.92386-2.0143.49841-.94361.74771-2.10513.74771-3.48439 0-2.12307-.59373-3.77014-1.78098-4.94083-1.06972-1.05237-2.78716-1.57885-5.1529-1.57885h-1.29173zM254.50517 110.95668h4.03328c2.20903 0 3.78203.19726 4.7192.59158.93698.39413 1.69073 1.04925 2.26107 1.9646.57053.91554.8557 1.99851.8557 3.24951 0 1.31434-.31499 2.4133-.94478 3.29707-.62998.88357-1.57944 1.55215-2.84797 2.00534l4.73772 8.89185h-4.16173l-4.49719-8.47044h-.34852v8.47044h-3.80678v-19.99994zm3.80678 7.81784h1.19291c1.21065 0 2.04432-.15905 2.50063-.47736s.68456-.84576.68456-1.58255c0-.43623-.11305-.81593-.33897-1.13872-.22591-.32298-.52882-.55474-.90813-.69586-.37951-.14093-1.07518-.21149-2.0872-.21149h-1.0438v4.10599zM276.50051 110.95668h3.86078l7.69232 19.99994h-3.95648l-1.56482-4.11963h-8.1609l-1.627 4.11963h-3.95648l7.71259-19.99994zm1.95427 5.3026l-2.68346 6.86605h5.35074l-2.66728-6.86605zM309.28388 113.67601l-2.81952 2.48815c-.99-1.37769-1.99773-2.06673-3.02379-2.06673-.49938 0-.90794.13391-1.22585.40114-.31772.26743-.47658.56897-.47658.90404 0 .33546.11344.65259.34052.95179.30856.399 1.2393 1.25548 2.79184 2.56963 1.45274 1.21474 2.33339 1.98058 2.64233 2.29771.77149.77968 1.31863 1.52525 1.64103 2.2367.3224.71165.4836 1.4886.4836 2.33163 0 1.64064-.56722 2.99592-1.70146 4.06525-1.13424 1.06972-2.61329 1.60439-4.43696 1.60439-1.42467 0-2.66553-.3491-3.72258-1.04691-1.05725-.69781-1.96245-1.79463-2.71543-3.29025l3.2-1.93068c.96232 1.76753 2.06966 2.6513 3.32241 2.6513.65357 0 1.20285-.19044 1.64785-.57112.44481-.38068.66721-.82022.66721-1.31883 0-.45319-.16802-.90618-.50387-1.35957-.33624-.45319-1.07615-1.14652-2.22014-2.08018-2.1792-1.7765-3.58652-3.14757-4.22216-4.11281-.63563-.96544-.95316-1.92834-.95316-2.8893 0-1.38666.52843-2.57645 1.58587-3.56898 1.05705-.99253 2.36165-1.4886 3.91341-1.4886.99838 0 1.949.23098 2.85187.69333.90287.46215 1.88078 1.30518 2.93354 2.52889zM313.13159 110.95668h3.82043v12.93312c0 1.11397.09726 1.90203.29238 2.36379.19472.46196.51673.83114.96524 1.10734.44871.2762.99019.4142 1.62485.4142.67052 0 1.24846-.15379 1.73342-.46177.48477-.30797.82022-.69957 1.00618-1.17517.18556-.47541.27874-1.38335.27874-2.72381v-12.45772h3.82043v11.92383c0 2.01216-.11344 3.40817-.33994 4.18766-.22669.77968-.65941 1.53187-1.29836 2.25698-.63895.7253-1.37555 1.2623-2.20942 1.61101-.83406.34891-1.80379.52355-2.90957.52355-1.4502 0-2.71231-.33312-3.78651-.99935-1.07401-.66624-1.84219-1.5001-2.30454-2.5016-.46215-1.0015-.69333-2.69418-.69333-5.07825v-11.92383zM333.03193 110.95668h3.70913l4.63636 13.94963 4.67827-13.94963h3.70699l3.35496 19.99994h-3.68126l-2.1447-12.6308-4.24867 12.6308h-3.35515l-4.21105-12.6308-2.19577 12.6308h-3.71186l3.46275-19.99994zM358.08946 110.95668h3.70913l4.63636 13.94963 4.67847-13.94963h3.7066l3.35535 19.99994h-3.68165l-2.14451-12.6308-4.24886 12.6308h-3.35496l-4.21105-12.6308-2.19577 12.6308h-3.71186l3.46275-19.99994zM380.93543 110.95668h3.7795v19.99994h-3.7795v-19.99994zM387.02628 110.95668h11.05351v3.7526h-3.64344v16.24735h-3.86136v-16.24735h-3.54871v-3.7526z" class="cls-3"/></g><g><g><path d="m52.66909,91.84737c-4.07035.49264-7.84239,1.91748-11.48828,3.70141-6.93725,3.39395-13.37168,7.62841-19.80118,11.86603-6.99733,4.61254-13.97569,9.25459-20.95861,13.88926-.23262.15424-.52285.25017-.67078.55623,3.42522,2.2618,6.84342,4.53029,10.27287,6.78229,7.96748,5.23199,15.82815,10.62986,24.0546,15.4599,4.84725,2.84615,9.78411,5.51065,15.27051,6.97027.88934.23683,1.78676.44731,2.6803.66973h7.70045c.08748-.143.23576-.14899.37879-.17183,1.86792-.29585,3.92143-.94499,5.69869-1.56833-.01651-1.53447-.29558-2.99572-.31172-4.53087-.08574.03374-.17254.06464-.25828.09732-.68905.26107-1.38336.50352-2.08506.71787-.31696.09662-.63599.18588-.9561.27162-.47682.1272-.95644.2435-1.44066.34293-.5397.11105-1.08399.2038-1.63318.27548-.37001.04849-.46629.253-.58259.52672-.50598,1.19117-1.41606,1.82048-2.71265,1.82504-1.27091.00457-2.15639-.66655-2.67925-1.76883-.19079-.40336-.39845-.53513-.8194-.60331-8.57256-1.389-14.96938-5.87082-18.92976-13.58249-2.79907-5.44953-3.35145-11.23038-1.86828-17.18308.11314-.45327.10823-.76881-.25756-1.14689-.83698-.86545-1.05589-1.93118-.61034-3.06051.45574-1.15568,1.3623-1.82575,2.59071-1.90165.59382-.03654.84014-.29866,1.12932-.73964,5.45232-8.30904,13.12431-12.41488,23.12486-12.03082,1.15251.04427,2.29729.29903,3.44596.45608,5.10516,1.14901,9.50827,3.54331,13.11058,7.35223,1.2221,1.29236,2.31383,2.68734,3.20387,4.22884.26177.45293.52846.7031,1.1251.74316,1.22139.08081,2.12725.74106,2.59353,1.90199.47296,1.17713.20872,2.23864-.65744,3.12023-.32431.32995-.32817.60296-.23051,1.00144,1.80609,7.35433.54394,14.17316-3.76993,20.38024-2.58437,3.71829-5.99308,6.52789-10.14214,8.41232-.23683.10717-.46067.24211-.69047.36369.01581,1.53515.03198,3.06999.04849,4.60445.16726-.0492.33838-.08855.50142-.14899,4.59954-1.71086,8.8287-4.14767,12.99887-6.68074,8.76265-5.32301,17.19605-11.15062,25.74331-16.80287,2.30118-1.52181,4.5939-3.05628,6.96325-4.63291-.39952-.27338-.72877-.50669-1.06608-.72875-7.51069-4.95233-15.00417-9.92993-22.53912-14.84606-5.80125-3.78503-11.62848-7.53669-17.87667-10.57259-2.98461-1.45048-6.02929-2.75762-9.3203-3.37815-.5376-.12964-1.10228-.12544-1.63179-.23295-1.28288-.26143-2.56542-.37915-3.85111-.37915-.93009,0-1.86159.06151-2.79626.17464" class="cls-3"/><g clip-path="url(#clippath)"><path d="M22.633 64.117H88.868V179.299H22.633z" class="cls-3" transform="rotate(-86.796 55.75 121.708)"/></g></g><g><path d="m69.18735,109.18996h.00034-.00034Zm-13.41874-5.75557c.46416.90409.59136,1.83174.88089,2.70561.11068-.065.16973-.15075.21013-.24457-.04006.09383-.09945.17957-.21013.24492.31764,1.16482.6367,2.33244.97191,3.56087.13633.50034.27514,1.00879.41885,1.53447,1.76532-2.18135,3.41679-4.22217,5.20424-6.43057-.32536,2.79837-.62368,5.3715-.93676,8.06656,2.42449-1.19396,4.54822-2.62935,6.87013-3.69262.03093-.03232.06149-.06466.09205-.09698.04849.09383.02389.13177-.08223.10788-.07553.50037-.30042.92869-.55377,1.34297-.08433.13807-.17181.27441-.25826.41145-.11525.18272-.2277.3665-.32749.55623-.67393,1.28359-1.42132,2.52921-2.12654,3.797-.10717.19289-.33943.41321-.18798.62861.14547.20625.43641.08433.65671.05936,2.33633-.26422,4.67158-.5397,7.24296-.83978-2.20209,1.7372-4.23832,3.343-6.43162,5.07282,2.68172.7906,5.17297,1.52533,7.90248,2.33034-2.73055.76881-5.23974,1.47474-7.90458,2.22493,2.10614,1.65954,4.1185,3.24531,6.13154,4.83108-.02108.06361-.04216.12686-.06327.1901-2.54361-.29165-5.08723-.58398-7.74225-.88863,1.25723,2.30574,2.47054,4.53276,3.68421,6.75979.03374.04287.10504.10612.09417.12544-.06466.12019-.13633.04639-.2038-.00772l-.00036.00034c-1.93678-1.05413-3.87217-2.11002-5.81036-3.16027-.27408-.14828-.51864-.37141-.96384-.39039.29973,2.62444.5963,5.22183.9157,8.01634-1.53728-1.85739-2.95121-3.56578-4.36515-5.27418-.12686-.13458-.25371-.26915-.39425-.41814-.14019-.14933-.29446-.31307-.47613-.50598-.72347,2.52499-1.41076,4.92349-2.09806,7.32164-.05975.00493-.11948.00984-.17886.01476-.701-2.4382-1.40234-4.87641-2.14657-7.46572-1.32258,1.63567-2.55802,3.17786-3.81139,4.70566-.39672.48314-.7126,1.03938-1.23334,1.41606.00071.00738.00036.0151.00071.02248-.00948.00457-.01898.00879-.02846.013-.00774.01265-.01407.02565-.02389.03549-.00703.00667-.02987-.0021-.04534-.00422.02284-.01019.04602-.02072.06923-.03127.00562-.00948.01229-.01791.01827-.02704.00352-.00247.00596-.00598.00948-.00843-.03794-.57451-.00914-1.14268.04849-1.70876.02145-.21294.04602-.42515.0738-.63739.10331-.78429.23576-1.56576.2969-2.35389.07837-1.00423.21998-2.00391.34224-3.08474-.55553.06781-.9083.37844-1.29131.59068-1.62055.89811-3.22424,1.82575-4.84444,2.72386-.23086.12825-.43782.38511-.76109.28146,0,0-.00034,0-.00034-.00036-.00106.00247-.00247.00457-.00352.00669l-.01335-.01055c.00597.00247.01088.00247.01687.00386.91007-1.70276,1.81978-3.40624,2.75444-5.15575.31202-.58435.62651-1.17325.94486-1.76954-2.6617.30254-5.2264.59383-7.79146.88477-.02002-.05692-.04005-.11384-.06044-.17076,2.01726-1.59033,4.03487-3.18067,6.17932-4.8715-2.72318-.75547-5.29772-1.46983-7.997-2.21861,2.70526-.7906,5.26118-1.53798,7.98998-2.3356-2.17432-1.71402-4.22918-3.33457-6.44778-5.08374,2.804.32082,5.37362.61491,8.16707.93465-1.34543-2.42415-2.60335-4.69122-3.98954-7.18883,2.48072,1.37881,4.75449,2.64307,7.16178,3.98146-.31239-2.71685-.60648-5.27733-.93221-8.10557,1.80081,2.22071,3.45754,4.26397,5.20248,6.41616.74738-2.64586,1.45507-5.1526,2.18524-7.73768m-10.68645-1.92696c-.49544.253-.98035.5246-1.45576.81554-2.95684,1.80889-5.53068,4.35428-7.73206,7.61962-.42411.62932-.46171,1.03376-.01159,1.71333,1.22771,1.8535.01089,4.2745-2.20489,4.50676-.47296.04954-.6367.22699-.73263.6613-1.72701,7.82306-.2052,14.89067,5.03981,21.02678,3.76185,4.40099,8.57853,7.00014,14.31617,7.89862.42588.0664.67254.0288.87493-.42835.40444-.91147,1.17537-1.42693,2.15607-1.58577,1.36332-.2203,2.33701.45224,3.15852,1.4368.05272.56887.35384.72735.89532.58398.44836-.11843.91218-.17886,1.36897-.26705,12.80701-2.47193,21.30121-16.0207,17.95961-28.62532-.11911-.44975-.26248-.65778-.77865-.71751-2.33349-.27057-3.46563-2.82614-2.07453-4.71338.37209-.50493.31483-.82153.0151-1.29167-1.49756-2.3493-3.29485-4.43016-5.50222-6.13855-.49367-.3823-.99475-.74421-1.50354-1.08577-.50879-.34153-1.02497-.66269-1.54993-.96206-.26248-.1497-.52636-.29409-.79304-.43326-.36615-.19113-.73615-.37175-1.11036-.54216-2.61845-1.19223-5.43018-1.86933-8.46362-1.9477-.29165-.00806-.58188-.01229-.86931-.01229-4.10093,0-7.76404.83557-11.00234,2.4881" class="cls-3"/><g clip-path="url(#clippath-1)"><path d="M31.813 95.77H81.461V149.148H31.813z" class="cls-3" transform="rotate(-86.796 56.637 122.46)"/></g></g><g><path d="m58.4454,117.71087q-1.86686.0042-1.86652,1.8363.00034,2.15182,2.16274,2.15605,2.298.00491,1.91711-2.12197c-.32011-1.78781-.33486-1.87075-1.96421-1.87075-.07905,0-.16198,0-.24912.00036" class="cls-3"/><g clip-path="url(#clippath-2)"><path d="M56.047 116.837H61.571999999999996V122.58200000000001H56.047z" class="cls-3" transform="rotate(-64.592 58.81 119.71)"/></g></g><g><path d="m56.74262,123.44254c-.4828.42024-.10155,1.36122-.16304,2.07311-.00493.05763-.00071.11596-.00071.17393q0,1.62126,1.6311,1.62373,2.10123.00315,2.47616-2.05907.35487-1.95192-1.57734-1.94875c-.1163.00034-.23226.00034-.34857.00034-.00036-.01019-.00105-.02037-.00142-.03056-.21223.01053-.44518-.00352-.6785-.01688-.1764-.01053-.35279-.02108-.52003-.02108-.33242,0-.62898.04111-.81766.20522" class="cls-3"/><g clip-path="url(#clippath-3)"><path d="M55.782 122.242H61.517999999999994V128.311H55.782z" class="cls-3" transform="rotate(-64.592 58.65 125.277)"/></g></g><g><path d="m51.44525,117.85949c-.59664.5074-.44027,1.62512-.59207,2.47791-.24526,1.37952-.2263,1.38267,1.20698,1.38338.29163.00034.58328,0,.87493.00034,1.01268.00071,1.54114.00107,1.81627-.23366.0397-.03337.07378-.07167.10331-.1156.03408-.04991.06219-.10717.08538-.17254.03725-.1047.06219-.23051.07871-.38089.01617-.15075.0246-.32678.02882-.53163.0042-.2052.0042-.43957.0042-.70732,0-.26143-.03198-.52777.00562-.78393.12299-.83943-.12683-1.24072-1.06679-1.11176-.31974.04392-.67112.00879-1.01722-.02599-.23087-.02318-.45925-.04673-.6743-.04673-.32924,0-.62686.05482-.85384.24841" class="cls-3"/><g clip-path="url(#clippath-4)"><path d="M50.031 116.679H55.757V122.59700000000001H50.031z" class="cls-3" transform="rotate(-64.592 52.894 119.639)"/></g></g><g><path d="m52.98605,123.29319h-.08716q-2.2309.00142-1.91922,2.17398.26634,1.85809,2.13426,1.8588,1.93785.00139,1.93785-1.94733c-.00034-2.03625-.00034-2.08545-1.92027-2.08545h-.14547" class="cls-3"/><g clip-path="url(#clippath-5)"><path d="M50.097 122.465H55.622V128.156H50.097z" class="cls-3" transform="rotate(-64.592 52.86 125.31)"/></g></g><g><path d="m64.87841,117.6947c-.8152.01441-1.63108.02108-2.44665.00352-.3995-.00879-.50809.14266-.42972.51827.11875.56713.19255,1.14339.31588,1.7091.12615.57942-.23437,1.39532.28181,1.69682.45468.26563,1.18871.0555,1.79905.0555.00034.01231.00034.02496.00034.03725.46592,0,.93468-.02987,1.39742.00843.52814.04321.66166-.17745.58787-.65883-.15847-1.03938-.4487-2.03518-.89777-2.98742-.12475-.26353-.29761-.38299-.58892-.38299-.00633,0-.013.00034-.01932.00034" class="cls-3"/><g clip-path="url(#clippath-6)"><path d="M61.322 116.84H67.06V122.73700000000001H61.322z" class="cls-3" transform="rotate(-64.592 64.19 119.789)"/></g></g><g><path d="m65.617,123.28442c-.39845.05763-.81239.00984-1.21927.00984v.00525c-.49404,0-.98879.01055-1.48212-.00386-.33978-.01019-.5225.07062-.55868.46558-.09488,1.03691-.2372,2.06891-.3672,3.1023-.03093.24807-.04568.40268.30044.46419,2.6434.46873,3.2917.05621,3.9189-2.55205.04744-.19677.09417-.39425.13775-.59173.11735-.53305.07834-.91885-.487-.91885-.07204,0-.15251.00633-.24282.01932" class="cls-3"/><g clip-path="url(#clippath-7)"><path d="M61.188 122.517H67.22V128.54399999999998H61.188z" class="cls-3" transform="rotate(-64.592 64.204 125.53)"/></g></g><g><path d="m48.21434,117.70139q-2.07314.00069-2.63428,1.9691-.58293,2.04678,1.49792,2.04783h.08714c.14337.00036.28674-.00281.43045-.00562.3215-.00633.64337-.013.96241.01441.53481.04534.70031-.15495.70312-.68343.00315-.63213.08924-1.26918.19325-1.89498.23788-1.42659.2544-1.44731-1.16868-1.44731h-.07133" class="cls-3"/><g clip-path="url(#clippath-8)"><path d="M44.503 116.736H50.202V122.739H44.503z" class="cls-3" transform="rotate(-64.592 47.353 119.737)"/></g></g><g><path d="m47.247,123.29636q-2.30715.00176-1.6311,2.2309c.00844.02741.0225.05377.03093.08117.54111,1.71436.54111,1.72701,2.32929,1.70803.16655-.00139.35031.0204.53479.04216.44731.05342.89811.10648,1.11914-.17884.22804-.29409-.12297-1.03129-.20942-1.57206-.02741-.17183-.0267-.34752-.05025-.52003-.24033-1.74636-.24771-1.79167-1.9807-1.79167-.04639,0-.09383.00034-.14266.00034" class="cls-3"/><g clip-path="url(#clippath-9)"><path d="M44.461 122.265H50.336999999999996V128.496H44.461z" class="cls-3" transform="rotate(-64.592 47.399 125.38)"/></g></g><g><path d="m56.57184,129.35516c.02179,1.0682.00738,2.13672.00738,3.2007.09102.01546.15707.0492.19924.03022,1.51092-.68377,2.23019-2.04221,2.89992-3.42908.17217-.35595-.156-.35384-.38687-.35489-.26598-.00105-.53269.00105-.79903.00315-.45889.00352-.91814.00738-1.37634-.00701-.01581-.00071-.03127-.00071-.04639-.00071-.38404,0-.50562.16445-.4979.55763" class="cls-3"/><g clip-path="url(#clippath-10)"><path d="M55.783 128.4H60.632000000000005V133.002H55.783z" class="cls-3" transform="rotate(-64.592 58.207 130.701)"/></g></g><g><path d="m56.57887,113.70762q0,2.61249,2.63357,2.46878c.05833-.00317.11701-.00386.17498-.00176.34014.01265.41323-.17078.28674-.43781-.66164-1.40131-1.38619-2.752-3.09529-3.42981v1.4006Z" class="cls-3"/><g clip-path="url(#clippath-11)"><path d="M55.686 111.998H60.693V116.63000000000001H55.686z" class="cls-3" transform="rotate(-64.592 58.19 114.314)"/></g></g><g><path d="m53.13853,128.77047c-.28953.00036-.57976.00422-.86931.00105-.37456-.00386-.45503.14371-.29058.4807.52355,1.0724,1.11948,2.09456,2.05765,2.86371.25335.20732.53867.58997.88794.38897.28215-.16304.10189-.58469.12297-.89073.02108-.31625.00457-.63528.00457-.95258,0-1.85035,0-1.89112-1.79026-1.89112h-.12299" class="cls-3"/><g clip-path="url(#clippath-12)"><path d="M51.004 128.36H56.016999999999996V133.114H51.004z" class="cls-3" transform="rotate(-64.592 53.51 130.737)"/></g></g><g><path d="m54.44672,112.68722c-.89847.5889-1.52357,1.41956-2.04292,2.33665-.73473,1.29905-.73016,1.30186.7597,1.30257.23647,0,.44272,0,.62334-.00317.18096-.00386.33591-.01124.46839-.02599.19922-.0225.34857-.06185.46065-.13072.33591-.20625.33591-.67816.33557-1.75689,0-.46416-.01793-.92869.00457-1.39144.01651-.34471-.06676-.48913-.22559-.48913-.09979,0-.2298.05728-.3837.15812" class="cls-3"/><g clip-path="url(#clippath-13)"><path d="M50.926 112.076H55.816V116.77999999999999H50.926z" class="cls-3" transform="rotate(-64.593 53.37 114.428)"/></g></g><g><path d="m61.27188,129.25783c-.42728,1.07661-.98668,2.08508-1.77164,3.20246,2.02743-.81168,3.62058-1.86195,4.92139-3.66381-1.00073,0-1.80609.00562-2.6111-.00247h-.00772c-.32363,0-.42693.20239-.53093.46382" class="cls-3"/><g clip-path="url(#clippath-14)"><path d="M59.249 127.618H64.672V133.636H59.249z" class="cls-3" transform="rotate(-64.592 61.96 130.627)"/></g></g><g><path d="m49.76146,128.77364c-.7769.00596-1.5545.00176-2.46844.00176,1.1592,1.73334,3.4818,3.41398,4.72567,3.46492-.68553-.96734-1.22841-1.98774-1.67149-3.05873-.11562-.27831-.28286-.40795-.57837-.40795h-.00738" class="cls-3"/><g clip-path="url(#clippath-15)"><path d="M47.076 127.629H52.235V133.385H47.076z" class="cls-3" transform="rotate(-64.592 49.656 130.507)"/></g></g><g><path d="m47.2491,116.18519c.9431,0,1.69574.00525,2.4484-.00317.0376-.00034.078.0021.11877.00457.16795.01019.34855.02003.4241-.16936.4603-1.15321,1.08892-2.22317,1.67009-3.33281-1.83841.7126-3.41504,1.71964-4.66137,3.50078" class="cls-3"/><g clip-path="url(#clippath-16)"><path d="M46.989 111.585H52.171V117.30699999999999H46.989z" class="cls-3" transform="rotate(-64.592 49.58 114.445)"/></g></g><g><path d="m59.75954,112.67105c.4315,1.14198,1.23473,2.10265,1.61212,3.27203.04707.14652.17251.23471.33381.23051.27406-.00774.5492.00034.82749.00772.57907.01583,1.17466.03198,1.81205-.08924-.16128-.20063-.32573-.39425-.49262-.58118-1.16482-1.30186-2.48072-2.2678-4.09319-2.8416.00034.00071.00034.00105.00034.00176" class="cls-3"/><g clip-path="url(#clippath-17)"><path d="M59.468 111.61H64.637V117.273H59.468z" class="cls-3" transform="rotate(-64.592 62.052 114.441)"/></g></g><g><path d="m59.75901,112.6693c-.00281-.00738-.00633-.01441-.00914-.02179l-.01089.0137c.00703.00247.01336.00562.02003.00809" class="cls-3"/><path d="M59.74991 112.64748c-.0137-.00315-.02741-.00633-.04111-.00948.00984.00843.02003.01581.02987.02389.00034-.00071.01124-.01441.01124-.01441M59.70887 112.63809c-.00703-.00598-.0137-.01265-.02142-.01686-.00809-.00493-.0232.0021-.03515.00386.01864.0042.03725.00843.05587.013h.00071" class="cls-3"/></g></g><g><g><path d="m52.66909,151.96704c-4.07035-.49264-7.84239-1.91748-11.48828-3.70141-6.93725-3.39395-13.37168-7.62841-19.80118-11.86603-6.99733-4.61254-13.97569-9.34841-20.95861-13.98308-.23262-.15424-.52285-.25017-.67078-.55623,3.42522-2.2618,7.21343-.58075,10.64288-2.83275,7.96748-5.23199,19.47826,17.54023,20.70667,17.61612.59382.03654,16.16609,14.18851,26.16664,13.80445,1.15251-.04427,3.637-2.62444,4.78567-2.78149,5.10516-1.14901,19.98252-11.81937,20.44881-12.9803.47296-1.17713,26.88015-14.45256,29.2495-12.87593-.39952.27338-.72877.50669-1.06608.72875-7.51069,4.95233-15.00417,10.12356-22.53912,15.0397-5.80125,3.78503-11.62848,7.53669-17.87667,10.57259-2.98461,1.45048-6.02929,2.75762-9.3203,3.37815-.5376.12964-1.10228.12544-1.63179.23295-1.28288.26143-2.56542.37915-3.85111.37915-.93009,0-1.86159-.06151-2.79626-.17464" class="cls-3"/><g clip-path="url(#clippath-18)"><path d="M-1.843 88.846H113.345V155.08100000000002H-1.843z" class="cls-3" transform="rotate(-3.253 55.75 121.963)"/></g></g><g><path d="m59.75901,131.14511c-.00281.00738-.00633.01441-.00914.02179l-.01089-.0137c.00703-.00247.01336-.00562.02003-.00809" class="cls-3"/><path d="M59.74991 131.16692c-.0137.00315-.02741.00633-.04111.00948.00984-.00843.02003-.01581.02987-.02389.00034.00071.01124.01441.01124.01441M59.70887 131.17631c-.00703.00598-.0137.01265-.02142.01686-.00809.00493-.0232-.0021-.03515-.00386.01864-.0042.03725-.00843.05587-.013h.00071" class="cls-3"/></g></g></svg>